<svg xmlns="http://www.w3.org/2000/svg" version="1.1"
    xmlns:xlink="http://www.w3.org/1999/xlink"
    xmlns:svgjs="http://svgjs.dev/svgjs" viewBox="0 0 1422 800">
    <g shape-rendering="crispEdges" stroke-linejoin="round" fill="none" stroke-width="1" stroke="hsl(0, 0%, 93%)">
        <polygon points="1244.25,0 1422,100 1244.25,100"></polygon>
        <polygon points="1244.25,100 1244.25,0 1066.5,100"></polygon>
        <polygon points="1066.5,200 1244.25,100 1244.25,200"></polygon>
        <polygon points="1422,200 1422,100 1244.25,200"></polygon>
        <polygon points="888.75,100 1066.5,100 888.75,0"></polygon>
        <polygon points="711,0 711,100 888.75,100"></polygon>
        <polygon points="888.75,100 888.75,150 799.875,150"></polygon>
        <polygon points="799.875,100 711,100 711,150"></polygon>
        <polygon points="799.875,200 799.875,150 711,150"></polygon>
        <polygon points="888.75,150 799.875,200 888.75,200"></polygon>
        <polygon points="888.75,100 1066.5,100 888.75,200"></polygon>
        <polygon points="977.625,200 1066.5,250 1066.5,200"></polygon>
        <polygon points="977.625,250 977.625,200 888.75,250"></polygon>
        <polygon points="888.75,300 888.75,250 977.625,250"></polygon>
        <polygon points="1066.5,300 977.625,300 977.625,250"></polygon>
        <polygon points="888.75,300 711,300 711,200"></polygon>
        <polygon points="888.75,300 799.875,300 799.875,350"></polygon>
        <polygon points="711,300 711,350 799.875,350"></polygon>
        <polygon points="711,350 711,400 799.875,350"></polygon>
        <polygon points="888.75,400 888.75,350 799.875,350"></polygon>
        <polygon points="1066.5,350 1066.5,300 977.625,300"></polygon>
        <polygon points="888.75,300 888.75,350 977.625,300"></polygon>
        <polygon points="888.75,400 977.625,400 977.625,350"></polygon>
        <polygon points="1066.5,400 977.625,350 1066.5,350"></polygon>
        <polygon points="1244.25,300 1422,300 1422,200"></polygon>
        <polygon points="1155.375,250 1244.25,200 1244.25,250"></polygon>
        <polygon points="1066.5,250 1155.375,200 1066.5,200"></polygon>
        <polygon points="1155.375,250 1066.5,250 1066.5,300"></polygon>
        <polygon points="1244.25,250 1155.375,300 1155.375,250"></polygon>
        <polygon points="1066.5,300 1244.25,400 1066.5,400"></polygon>
        <polygon points="1422,400 1244.25,400 1422,300"></polygon>
        <polygon points="711,100 533.25,0 533.25,100"></polygon>
        <polygon points="355.5,0 533.25,100 533.25,0"></polygon>
        <polygon points="355.5,100 533.25,200 355.5,200"></polygon>
        <polygon points="533.25,200 711,100 533.25,100"></polygon>
        <polygon points="355.5,100 355.5,0 177.75,0"></polygon>
        <polygon points="177.75,100 0,0 0,100"></polygon>
        <polygon points="0,100 177.75,100 0,200"></polygon>
        <polygon points="355.5,200 177.75,100 177.75,200"></polygon>
        <polygon points="177.75,200 177.75,300 355.5,300"></polygon>
        <polygon points="177.75,200 0,300 177.75,300"></polygon>
        <polygon points="177.75,300 0,300 177.75,400"></polygon>
        <polygon points="177.75,300 355.5,400 177.75,400"></polygon>
        <polygon points="622.125,250 711,200 711,250"></polygon>
        <polygon points="533.25,200 622.125,250 533.25,250"></polygon>
        <polygon points="622.125,300 622.125,250 533.25,300"></polygon>
        <polygon points="711,250 622.125,250 622.125,300"></polygon>
        <polygon points="355.5,300 533.25,200 533.25,300"></polygon>
        <polygon points="533.25,300 533.25,350 444.375,300"></polygon>
        <polygon points="444.375,300 444.375,350 355.5,300"></polygon>
        <polygon points="444.375,350 444.375,400 355.5,350"></polygon>
        <polygon points="533.25,350 533.25,400 444.375,400"></polygon>
        <polygon points="711,350 711,300 622.125,350"></polygon>
        <polygon points="622.125,300 533.25,300 622.125,350"></polygon>
        <polygon points="622.125,350 622.125,400 533.25,350"></polygon>
        <polygon points="711,350 711,400 622.125,400"></polygon>
        <polygon points="711,400 622.125,400 711,450"></polygon>
        <polygon points="622.125,400 622.125,450 533.25,450"></polygon>
        <polygon points="622.125,500 533.25,450 533.25,500"></polygon>
        <polygon points="711,500 711,450 622.125,500"></polygon>
        <polygon points="533.25,400 533.25,500 355.5,400"></polygon>
        <polygon points="444.375,500 533.25,500 444.375,550"></polygon>
        <polygon points="444.375,550 444.375,500 355.5,550"></polygon>
        <polygon points="444.375,600 355.5,600 355.5,550"></polygon>
        <polygon points="444.375,600 533.25,550 444.375,550"></polygon>
        <polygon points="711,550 622.125,550 711,500"></polygon>
        <polygon points="622.125,500 533.25,550 533.25,500"></polygon>
        <polygon points="622.125,600 622.125,550 533.25,550"></polygon>
        <polygon points="711,600 711,550 622.125,550"></polygon>
        <polygon points="355.5,450 266.625,400 266.625,450"></polygon>
        <polygon points="177.75,450 266.625,400 266.625,450"></polygon>
        <polygon points="266.625,500 266.625,450 177.75,500"></polygon>
        <polygon points="355.5,450 266.625,500 355.5,500"></polygon>
        <polygon points="0,500 0,400 177.75,500"></polygon>
        <polygon points="0,600 0,500 177.75,600"></polygon>
        <polygon points="177.75,600 355.5,600 177.75,500"></polygon>
        <polygon points="355.5,700 177.75,700 177.75,600"></polygon>
        <polygon points="0,600 0,700 177.75,700"></polygon>
        <polygon points="177.75,800 177.75,700 0,800"></polygon>
        <polygon points="355.5,700 177.75,800 355.5,800"></polygon>
        <polygon points="711,700 533.25,700 711,600"></polygon>
        <polygon points="533.25,600 355.5,700 533.25,700"></polygon>
        <polygon points="533.25,800 533.25,700 355.5,800"></polygon>
        <polygon points="711,800 533.25,700 711,700"></polygon>
        <polygon points="1422,400 1244.25,500 1422,500"></polygon>
        <polygon points="1244.25,400 1244.25,500 1066.5,500"></polygon>
        <polygon points="1244.25,500 1244.25,600 1066.5,600"></polygon>
        <polygon points="1422,600 1422,500 1244.25,500"></polygon>
        <polygon points="1066.5,400 1066.5,500 888.75,500"></polygon>
        <polygon points="888.75,400 799.875,450 799.875,400"></polygon>
        <polygon points="799.875,400 799.875,450 711,400"></polygon>
        <polygon points="799.875,450 711,500 711,450"></polygon>
        <polygon points="888.75,450 799.875,500 799.875,450"></polygon>
        <polygon points="799.875,500 888.75,550 799.875,550"></polygon>
        <polygon points="711,550 799.875,500 799.875,550"></polygon>
        <polygon points="799.875,550 799.875,600 711,600"></polygon>
        <polygon points="888.75,550 799.875,600 799.875,550"></polygon>
        <polygon points="1066.5,500 977.625,500 1066.5,550"></polygon>
        <polygon points="977.625,500 888.75,500 977.625,550"></polygon>
        <polygon points="977.625,550 888.75,550 977.625,600"></polygon>
        <polygon points="1066.5,550 1066.5,600 977.625,600"></polygon>
        <polygon points="1066.5,600 888.75,700 888.75,600"></polygon>
        <polygon points="888.75,700 711,700 711,600"></polygon>
        <polygon points="888.75,800 888.75,700 711,700"></polygon>
        <polygon points="888.75,700 1066.5,800 1066.5,700"></polygon>
        <polygon points="1422,700 1244.25,600 1422,600"></polygon>
        <polygon points="1244.25,700 1244.25,600 1066.5,600"></polygon>
        <polygon points="1066.5,700 1244.25,800 1244.25,700"></polygon>
        <polygon points="1422,700 1422,800 1244.25,700"></polygon>
    </g>
    <g fill="hsl(220, 62%, 45%)" stroke-width="3" stroke="hsl(220, 43%, 13%)"></g>
</svg>